<svg width="287" height="300" viewBox="0 0 287 300" fill="none" xmlns="http://www.w3.org/2000/svg">
<g clip-path="url(#clip0_89_0)">
<path d="M134.967 299.016C209.507 299.016 269.934 295.764 269.934 291.752C269.934 287.739 209.507 284.487 134.967 284.487C60.4268 284.487 0 287.739 0 291.752C0 295.764 60.4268 299.016 134.967 299.016Z" fill="#F1F1F1"/>
<path d="M119.912 258.874C115.838 279.959 95.4689 296.97 74.3913 296.97C53.3138 296.97 39.6754 279.959 43.7492 258.874C47.823 237.788 68.1921 220.778 89.2696 220.778C110.347 220.778 124.163 237.788 119.912 258.874Z" fill="#757D85"/>
<path d="M106.628 258.874C103.971 272.518 90.6866 283.68 77.0481 283.68C63.4097 283.68 54.5536 272.695 57.2105 258.874C59.8673 245.23 73.1515 234.067 86.7899 234.067C100.251 234.245 109.284 245.23 106.628 258.874Z" fill="#C2BEC1"/>
<path d="M94.0519 258.874C92.8121 265.607 86.2585 271.1 79.5279 271.1C72.7972 271.1 68.3692 265.607 69.7862 258.874C71.026 252.141 77.5795 246.648 84.3102 246.648C90.8637 246.825 95.2918 252.141 94.0519 258.874Z" fill="#FFF6F8"/>
<path d="M103.086 223.082C85.0193 215.285 60.9307 224.853 49.4178 244.344C45.6982 250.723 43.7498 257.279 43.2185 263.481L119.204 262.772C124.163 245.939 117.964 229.46 103.086 223.082Z" fill="#9FBFD4" style="mix-blend-mode:multiply"/>
<path d="M271.883 225.385C271.883 225.385 270.82 170.456 254.879 159.293C247.617 154.155 242.303 144.587 238.938 135.55L226.362 99.5805H215.203L226.362 171.342C227.602 177.721 226.716 184.277 223.705 190.124L202.274 231.587C199.262 237.434 203.336 240.623 196.96 239.737C181.904 237.788 166.318 233.89 151.262 227.157V186.403C151.262 173.291 161.89 162.66 174.997 162.66V141.22H151.262H130.716H113.358C62.5241 141.22 21.2547 182.505 21.2547 233.359V257.279H34.5388H151.439H250.982L271.883 225.385Z" fill="#F75D49"/>
<path d="M159.764 247.002L133.019 227.866C131.425 226.803 131.07 224.676 132.133 223.259C133.196 221.841 135.144 221.487 136.738 222.55L163.484 241.686C165.078 242.75 165.432 244.876 164.369 246.293C163.307 247.888 161.181 248.065 159.764 247.002Z" fill="#757D85"/>
<path d="M78.4651 174.354C78.8194 161.774 84.6644 151.851 90.5095 144.055C50.657 154.332 21.2547 190.302 21.2547 233.359V257.279H34.5388H151.44H158.17C127.528 235.662 77.5795 212.273 78.4651 174.354Z" fill="#EEEEEE" style="mix-blend-mode:multiply"/>
<path d="M250.805 257.456L272.06 225.385C272.06 225.385 270.997 170.456 255.056 159.293C247.794 154.155 242.48 144.587 239.115 135.55L226.539 99.5805H219.454C219.986 116.059 223.528 133.601 230.082 143.878C232.916 148.485 238.052 155.75 242.126 167.444C242.657 169.039 247.263 182.505 247.263 198.984C247.263 220.424 239.824 240.092 233.27 257.279H250.805V257.456Z" fill="#FC6A57"/>
<path d="M277.726 258.874C273.652 279.959 253.283 296.97 232.206 296.97C211.128 296.97 197.49 279.959 201.564 258.874C205.637 237.788 226.006 220.778 247.084 220.778C267.984 220.778 281.8 237.788 277.726 258.874Z" fill="#757D85"/>
<path d="M264.266 258.874C261.61 272.518 248.325 283.68 234.687 283.68C221.048 283.68 212.192 272.695 214.849 258.874C217.506 245.23 230.79 234.067 244.429 234.067C258.067 234.245 266.923 245.23 264.266 258.874Z" fill="#C2BEC1"/>
<path d="M251.691 258.874C250.451 265.607 243.897 271.1 237.167 271.1C230.436 271.1 226.008 265.607 227.425 258.874C228.665 252.141 235.218 246.648 241.949 246.648C248.68 246.825 252.931 252.141 251.691 258.874Z" fill="#FFF6F8"/>
<path d="M246.908 220.778C225.831 220.778 205.462 237.788 201.388 258.874C200.148 265.607 200.679 271.986 202.628 277.479L278.259 248.597C277.019 232.65 264.443 220.778 246.908 220.778Z" fill="#9FBFD4" style="mix-blend-mode:multiply"/>
<path d="M286.23 234.422C274.894 209.97 245.137 198.984 218.746 209.97C192.355 220.955 178.893 249.66 188.104 274.998L286.23 234.422Z" fill="#FC6A57"/>
<path d="M136.561 257.456H43.7492C41.4466 257.456 39.6754 255.684 39.6754 253.381C39.6754 229.638 58.8046 210.501 82.539 210.501H98.1257C121.86 210.501 140.989 229.638 140.989 253.381C140.812 255.507 138.864 257.456 136.561 257.456Z" fill="#FC6A57"/>
<path d="M174.82 144.941H110.524V159.471H174.82V144.941Z" fill="#EEEEEE" style="mix-blend-mode:multiply"/>
<path d="M227.071 104.896H210.953C210.067 104.896 209.358 103.656 209.358 102.238C209.358 100.821 210.067 99.5805 210.953 99.5805H227.071C227.956 99.5805 228.665 100.821 228.665 102.238C228.665 103.656 227.956 104.896 227.071 104.896Z" fill="#757D85"/>
<path d="M266.57 118.185C266.57 128.994 262.319 137.676 257.005 137.676C251.691 137.676 226.54 128.994 226.54 118.185C226.54 107.377 251.691 98.6946 257.005 98.6946C262.319 98.6946 266.57 107.377 266.57 118.185Z" fill="#FC6A57"/>
<path d="M266.215 123.501C263.204 124.919 259.13 126.868 253.462 126.868C245.491 126.868 239.469 122.792 235.218 119.957C232.207 118.008 229.905 115.882 227.779 113.578C226.894 114.996 226.362 116.414 226.362 118.008C226.362 128.817 251.514 137.499 256.827 137.499C261.432 137.499 265.152 131.652 266.215 123.501Z" fill="#D83B29"/>
<path d="M259.838 137.676C263.653 137.676 266.746 128.95 266.746 118.185C266.746 107.421 263.653 98.6946 259.838 98.6946C256.023 98.6946 252.931 107.421 252.931 118.185C252.931 128.95 256.023 137.676 259.838 137.676Z" fill="#FFF6F8"/>
<path d="M242.126 113.047C245.843 113.047 248.857 111.698 248.857 110.035C248.857 108.371 245.843 107.023 242.126 107.023C238.409 107.023 235.395 108.371 235.395 110.035C235.395 111.698 238.409 113.047 242.126 113.047Z" fill="#FC6A57"/>
<path d="M236.635 117.654C238.787 117.654 240.532 116.861 240.532 115.882C240.532 114.903 238.787 114.11 236.635 114.11C234.483 114.11 232.739 114.903 232.739 115.882C232.739 116.861 234.483 117.654 236.635 117.654Z" fill="#FC6A57"/>
<path d="M245.119 104.443L240.078 81.2408L239.905 81.2785L244.946 104.481L245.119 104.443Z" fill="#29201D"/>
<path d="M237.344 92.3157C239.594 92.3157 241.418 87.5559 241.418 81.6844C241.418 75.8128 239.594 71.053 237.344 71.053C235.094 71.053 233.27 75.8128 233.27 81.6844C233.27 87.5559 235.094 92.3157 237.344 92.3157Z" fill="#FFF6F8"/>
<path d="M239.066 229.87C249.618 226.262 256.838 219.434 255.193 214.619C253.548 209.804 243.661 208.826 233.109 212.434C222.557 216.041 215.337 222.869 216.982 227.684C218.627 232.499 228.515 233.478 239.066 229.87Z" fill="#FE7260"/>
<path d="M108.248 241.877C117.209 238.304 122.946 231.575 121.063 226.848C119.179 222.121 110.388 221.186 101.427 224.76C92.4666 228.333 86.7294 235.062 88.6131 239.789C90.4967 244.516 99.2878 245.451 108.248 241.877Z" fill="#FE7260"/>
<path d="M220.55 243.457C224.437 242.127 227.101 239.624 226.5 237.864C225.899 236.105 222.26 235.756 218.373 237.086C214.485 238.415 211.821 240.919 212.422 242.678C213.023 244.437 216.662 244.786 220.55 243.457Z" fill="#FE7260"/>
<path d="M178.362 139.094H110.524V153.623H178.362V139.094Z" fill="#FC6A57"/>
<path d="M259.484 120.489C255.942 115.882 255.942 110.389 256.65 105.782C255.233 108.617 254.348 113.224 254.348 118.54C254.348 127.222 256.827 134.132 259.838 134.132C262.141 134.132 263.912 130.412 264.798 124.919C263.204 123.855 261.078 122.615 259.484 120.489Z" fill="#DFECF5"/>
<path d="M150.908 149.371C155.336 150.965 159.233 152.383 162.952 153.623H178.362V139.094H126.111C130.716 142.106 139.218 145.295 150.908 149.371Z" fill="#EEEEEE" style="mix-blend-mode:multiply"/>
<path d="M134.259 87.7088C134.259 87.7088 175.882 117.122 198.023 134.664C218.037 150.434 190.229 147.422 133.55 138.385C122.214 136.613 120.797 111.629 126.288 101.707L134.259 87.7088Z" fill="#111A2C"/>
<path d="M185.801 142.283C185.801 142.283 172.34 144.232 165.786 165.141C159.233 185.872 148.074 212.45 148.074 212.45L154.982 217.412C154.982 217.412 181.727 183.923 192.355 166.027C192.355 166.027 200.857 161.065 203.868 150.611C206.525 141.043 202.805 138.562 195.543 133.424L185.801 142.283Z" fill="#111A2C"/>
<path d="M145.063 216.526L149.314 209.615L156.93 214.931L153.919 219.006L149.845 223.968L145.063 216.526Z" fill="#FFBC82"/>
<path d="M145.772 215.64C145.772 215.64 139.572 219.715 137.978 223.79C137.978 223.79 147.897 231.232 154.805 237.966C161.89 244.522 168.975 243.104 165.078 237.611C161.181 231.941 154.096 219.183 154.096 219.183C154.096 219.183 149.668 223.79 145.772 215.64Z" fill="#111A2C"/>
<path d="M132.487 94.0877C130.539 96.3911 136.03 107.022 145.772 110.035C151.794 111.807 159.764 110.743 160.296 107.908C160.473 107.377 160.296 106.668 159.764 106.137C155.69 103.124 151.794 100.466 148.428 97.9858C141.698 94.442 134.082 92.1386 132.487 94.0877Z" fill="#9FBFD4" style="mix-blend-mode:multiply"/>
<path d="M164.547 236.548C162.598 237.08 160.827 238.852 159.587 239.56C157.285 240.801 144 225.385 144 225.385C143.646 222.727 142.583 220.247 141.698 218.829C140.104 220.247 138.687 222.019 137.978 223.79C137.978 223.79 147.897 231.232 154.805 237.966C161.89 244.522 168.975 243.104 165.078 237.611C164.901 237.08 164.724 236.902 164.547 236.548Z" fill="#FFF6F8"/>
<path d="M181.196 56.1691C181.196 56.1691 185.093 51.3849 182.967 48.9043C181.727 47.4868 181.196 45.0061 181.905 43.2342C183.676 38.9817 185.624 34.5519 188.458 32.2485L190.761 15.7698C190.761 15.7698 181.196 23.9206 172.34 34.0204C169.506 37.2098 165.964 36.3238 164.192 36.3238C160.65 36.3238 157.639 57.055 175.705 57.055H175.882C179.779 57.055 176.591 58.6497 181.196 56.1691Z" fill="#FFBC82"/>
<path d="M181.55 44.829V44.6518C181.55 44.2974 181.727 43.7658 181.904 43.4115C182.613 41.8168 183.144 40.0449 184.03 38.6273L180.842 30.831C180.842 30.6538 176.945 39.6905 181.55 44.829Z" fill="#DE9066"/>
<path d="M181.196 62.0163C181.196 62.0163 186.155 53.1568 183.144 49.0815C183.144 49.0815 182.967 47.664 180.31 45.3605C172.517 40.9308 167.026 36.3238 167.026 36.3238C162.244 34.9063 154.805 39.336 153.565 40.3992C140.104 51.9165 140.458 57.4094 136.738 67.332C136.738 67.332 132.665 83.9878 125.757 89.8351C125.225 90.1894 141.698 110.212 156.576 109.857C160.827 109.68 162.775 107.377 162.775 107.377C166.495 96.9227 168.62 93.2017 172.517 87C180.133 74.4196 181.196 62.0163 181.196 62.0163Z" fill="#FC6A57"/>
<path d="M134.613 100.289C128.768 100.289 123.454 98.3402 119.735 94.4421L120.266 93.9105C125.403 99.049 133.373 100.821 141.521 98.5174C151.971 95.6824 164.724 85.5826 170.037 65.9145C172.694 55.6375 171.986 47.3096 167.735 41.2852C161.89 32.6029 151.085 31.3626 151.085 31.3626L151.262 30.4766C151.44 30.4766 162.421 31.8941 168.62 40.7536C173.048 47.1324 173.757 55.6375 171.1 66.0917C165.609 86.1141 152.325 96.3911 141.698 99.2262C139.218 99.9349 136.915 100.289 134.613 100.289Z" fill="#EDE92F"/>
<path d="M170.214 90.5438C169.86 88.4176 169.329 86.2913 168.975 84.5194C165.255 70.5214 156.753 57.5866 154.096 58.6497C151.794 59.5357 154.273 71.2302 155.336 76.0143C157.816 85.4054 162.067 94.6192 165.609 99.5805C167.203 96.0367 168.62 93.3789 170.214 90.5438Z" fill="#EEEEEE" style="mix-blend-mode:multiply"/>
<path d="M200.502 22.503C200.502 22.503 200.502 44.2974 190.761 42.8798C178.893 41.1079 175.882 23.7434 176.06 14.3523C176.06 9.92259 180.31 8.68226 184.739 7.61912C191.469 5.84723 200.679 10.277 200.502 22.503Z" fill="#FFBC82"/>
<path d="M198.731 10.6314C196.251 6.20165 189.698 3.01224 182.79 3.721C175.882 4.25257 171.454 9.21388 170.746 15.5927C169.86 26.0469 178.008 28.1732 178.008 28.1732C178.008 28.1732 185.447 29.0591 189.698 16.1243C199.794 18.9593 201.211 15.0611 198.731 10.6314Z" fill="#85321A"/>
<path d="M199.971 23.389C199.971 23.389 200.68 28.3503 201.388 30.1222C202.097 31.8941 201.388 33.3117 198.2 33.1345" fill="#FFBC82"/>
<path d="M195.366 34.3748C193.063 34.3748 191.469 32.0713 191.469 31.8941L191.646 31.7169C191.646 31.7169 193.772 34.7292 196.429 33.8432V34.0204C195.897 34.3748 195.72 34.3748 195.366 34.3748Z" fill="#29201D"/>
<path d="M175.971 24.5607C174.415 25.5777 174.238 28.0624 175.576 30.1104C176.914 32.1583 179.26 32.994 180.815 31.977C182.371 30.9599 182.548 28.4752 181.21 26.4273C179.873 24.3794 177.527 23.5437 175.971 24.5607Z" fill="#FFBC82"/>
<path d="M154.982 43.057C152.679 44.4745 152.502 50.6762 153.742 53.334C157.462 60.9532 163.838 93.2017 168.797 97.0998C174.288 101.352 193.595 100.644 202.982 100.644L205.108 95.3279C205.108 95.3279 181.904 88.7719 176.237 89.3035C176.237 89.3035 168.443 35.0835 154.982 43.057Z" fill="#FFBC82"/>
<path d="M167.558 48.9043C170.746 57.941 176.059 76.3687 176.059 76.3687C176.059 76.3687 165.963 80.2669 159.764 78.1406L149.668 52.9797C147.897 48.3728 149.314 43.0571 153.388 40.222C158.347 36.5011 165.609 43.0571 167.558 48.9043Z" fill="#FC6A57"/>
<path d="M173.757 32.0713L181.019 45.5377L174.643 50.3218L166.318 36.3238L173.757 32.0713Z" fill="#ED5541"/>
<path d="M182.613 43.943L180.665 45.5377L181.196 51.2078L183.676 50.1446L182.613 43.943Z" fill="#ED5541"/>
<path d="M181.905 43.4114L182.613 44.1202L181.55 45.0061C181.55 44.829 181.55 44.6518 181.905 43.4114Z" fill="#29201D"/>
<path d="M200.325 24.9837C200.325 24.9837 199.085 29.4134 196.96 31.0081C194.834 32.6028 191.469 30.831 189.875 32.6028C189.875 32.6028 189.875 41.9939 194.834 41.6395C206.524 41.1079 200.325 24.9837 200.325 24.9837Z" fill="white"/>
<path d="M195.366 38.4501C192.178 38.6273 191.115 34.9063 190.583 32.0713C190.229 32.2485 190.052 32.4257 189.875 32.6029C189.875 32.6029 189.875 41.9939 194.834 41.6395C200.325 41.2851 201.919 37.5642 201.919 33.666C201.034 36.3238 199.263 38.2729 195.366 38.4501Z" fill="#E6E6E6"/>
<path d="M192.532 33.3116C185.27 31.3625 179.248 24.6293 179.071 24.6293L179.602 24.275C179.602 24.275 185.624 30.831 192.709 32.7801L192.532 33.3116Z" fill="white"/>
<path d="M211.661 94.7964C211.661 94.7964 223.351 96.9227 223.351 97.8086C223.528 98.8718 223.705 108.44 223.705 108.44C223.705 108.44 220.871 108.794 218.569 100.466C218.569 100.466 207.587 103.656 200.148 100.644L203.336 94.9736L211.661 94.7964Z" fill="#FFBC82"/>
<path d="M202.096 10.0998C202.628 3.89816 189.521 -0.708768 181.727 0.17718C173.934 0.885938 168.975 6.91038 168.266 14.5295C167.026 26.9328 176.237 29.2363 176.237 29.2363C176.237 29.2363 179.779 28.1731 184.738 12.9348C195.72 16.1242 201.565 15.947 202.096 10.0998Z" fill="#FC6A57"/>
<path d="M179.779 19.668C179.602 20.0224 179.071 20.3768 178.716 20.1996L172.517 17.8961C171.986 17.7189 171.809 17.1874 171.986 16.833C172.163 16.4786 172.694 16.1242 173.048 16.3014L179.248 18.6049C179.779 18.7821 179.956 19.3136 179.779 19.668Z" fill="#F7EBD5"/>
<path d="M180.842 17.0102C180.665 17.3645 180.133 17.7189 179.779 17.5417L173.58 15.2383C173.226 15.0611 172.871 14.5295 173.048 14.1751C173.226 13.8208 173.757 13.4664 174.111 13.6436L180.31 15.947C180.842 16.1242 181.019 16.6558 180.842 17.0102Z" fill="#F7EBD5"/>
<path d="M181.905 14.3523C181.727 14.7067 181.196 15.0611 180.842 14.8839L174.642 12.5804C174.288 12.4032 173.934 11.8717 174.111 11.5173C174.288 11.1629 174.82 10.8085 175.174 10.9857L181.373 13.2892C181.727 13.4664 181.905 13.998 181.905 14.3523Z" fill="#F7EBD5"/>
<path d="M144.355 131.12C138.51 128.285 135.676 127.045 133.727 124.387C122.214 108.44 144.178 70.8758 157.462 48.1956C160.827 42.3483 163.307 38.6273 164.724 36.1467C160.118 36.1467 154.628 39.5133 153.565 40.3992C140.104 51.9165 140.458 57.4094 136.738 67.332C136.738 67.332 132.665 83.9878 125.757 89.8351C125.58 90.0123 127.351 92.3158 130.185 95.1508L126.642 101.53C120.975 111.452 122.569 136.436 133.904 138.208C152.502 141.22 168.089 143.524 179.779 144.587C175.351 147.422 169.683 153.269 165.964 164.786C163.484 172.583 160.296 181.265 157.462 188.884C161.004 185.517 164.192 181.442 166.495 176.658C169.329 170.634 168.975 167.267 173.757 158.407C180.488 145.827 186.155 143.169 184.738 139.803C182.259 134.132 165.255 141.043 144.355 131.12Z" fill="#DFDFDF" style="mix-blend-mode:multiply"/>
<path d="M158.991 31.0907L97.3963 12.6437L74.9941 87.5024L136.589 105.949L158.991 31.0907Z" fill="#D83B29"/>
<path d="M117.609 82.2159C129.446 82.2159 139.041 72.6169 139.041 60.776C139.041 48.935 129.446 39.3361 117.609 39.3361C105.773 39.3361 96.1774 48.935 96.1774 60.776C96.1774 72.6169 105.773 82.2159 117.609 82.2159Z" fill="#FFF6F8"/>
<path d="M123.808 70.8757L105.033 64.8513C103.262 64.3197 102.377 62.3706 102.908 60.7759L127.882 68.9267C127.351 70.5214 125.58 71.4073 123.808 70.8757Z" fill="#FFAD4B"/>
<path d="M125.58 68.0407L105.388 61.4847C104.148 61.1303 103.262 59.7128 103.794 58.2953C104.148 57.055 105.565 56.169 106.982 56.7006L127.174 63.2566C128.414 63.611 129.299 65.0285 128.768 66.446C128.414 67.6863 126.997 68.3951 125.58 68.0407Z" fill="#D83B29"/>
<path d="M106.191 55.2203L104.476 55.663L106.733 64.4132L108.448 63.9705L106.191 55.2203Z" fill="#85321A"/>
<path d="M110.78 56.6314L109.065 57.074L111.322 65.8242L113.037 65.3816L110.78 56.6314Z" fill="#85321A"/>
<path d="M115.369 58.0419L113.654 58.4846L115.911 67.2348L117.626 66.7922L115.369 58.0419Z" fill="#85321A"/>
<path d="M120.005 59.625L118.29 60.0678L120.548 68.818L122.263 68.3752L120.005 59.625Z" fill="#85321A"/>
<path d="M124.423 61.0803L122.708 61.5231L124.965 70.2733L126.68 69.8305L124.423 61.0803Z" fill="#85321A"/>
<path d="M130.008 65.5601C131.956 58.6497 127.705 51.3849 120.62 49.0815C113.358 46.778 105.742 50.3218 103.262 56.8778L130.008 65.5601Z" fill="#FFAD4B"/>
<path d="M122.932 58.4935C124.506 60.2364 126.488 61.0112 127.359 60.2241C128.23 59.4369 127.661 57.3859 126.087 55.643C124.513 53.9001 122.532 53.1253 121.66 53.9124C120.789 54.6996 121.359 56.7506 122.932 58.4935Z" fill="#FFC94B"/>
<path d="M108.045 73.888C96.7087 54.0428 95.1146 33.666 95.646 18.2505L74.9227 87.5316L136.561 105.959L136.915 105.073C127.882 98.3402 116.546 88.9491 108.045 73.888Z" fill="#EEEEEE" style="mix-blend-mode:multiply"/>
<path d="M217.329 253.735C206.347 245.939 203.691 232.118 202.451 220.069C187.218 233.89 181.019 255.33 188.104 274.821L228.133 258.342C224.237 257.634 220.694 256.216 217.329 253.735Z" fill="#EEEEEE" style="mix-blend-mode:multiply"/>
<path d="M175.528 7.08757C175.705 4.07535 178.185 1.77189 180.133 0.35437C173.226 1.77189 168.797 7.26476 168.089 14.5295C166.849 26.9328 176.06 29.2363 176.06 29.2363C176.06 29.2363 178.716 28.5275 182.613 18.7821C180.488 14.7067 175.174 12.0489 175.528 7.08757Z" fill="#EEEEEE" style="mix-blend-mode:multiply"/>
</g>
<defs>
<clipPath id="clip0_89_0">
<rect width="286.23" height="300" fill="white"/>
</clipPath>
</defs>
</svg>
