<svg width="238" height="300" viewBox="0 0 238 300" fill="none" xmlns="http://www.w3.org/2000/svg">
<g clip-path="url(#clip0_60_260)">
<path d="M118.812 300C177.666 300 225.377 296.648 225.377 292.512C225.377 288.377 177.666 285.024 118.812 285.024C59.9576 285.024 12.2468 288.377 12.2468 292.512C12.2468 296.648 59.9576 300 118.812 300Z" fill="#F1F1F1"/>
<path d="M229.063 8.94906L185.011 0L183.732 6.02692L183.915 6.20955L164.356 99.7181L170.571 100.997L190.129 7.30536L227.784 14.976L229.063 8.94906Z" fill="#FFF6F8"/>
<path d="M191.409 7.67065L190.129 7.30538L189.581 9.67963C187.57 7.67065 185.743 5.84431 184.28 3.83534L185.011 0.365295C186.657 2.73954 188.85 5.11378 191.409 7.67065Z" fill="#FF4A32"/>
<path d="M197.075 8.76645L193.785 8.03591C192.506 5.66167 191.592 3.28743 190.678 1.09583L193.785 1.64373C194.699 4.01797 195.613 6.39221 197.075 8.76645Z" fill="#FF4A32"/>
<path d="M205.666 10.5928L202.376 9.86227C201.097 7.48803 200 5.11379 199.086 2.92218L202.193 3.47008C203.107 5.66169 204.387 8.03593 205.666 10.5928Z" fill="#FF4A32"/>
<path d="M214.44 12.4191L210.967 11.6886C209.505 9.31434 208.408 6.9401 207.494 4.56586L210.784 5.29639C211.698 7.488 212.978 9.86224 214.44 12.4191Z" fill="#FF4A32"/>
<path d="M223.397 14.2455L219.741 13.5149C218.279 10.9581 216.999 8.58382 215.903 6.39221L219.193 7.12275C220.289 9.31435 221.752 11.6886 223.397 14.2455Z" fill="#FF4A32"/>
<path d="M228.698 10.2275L227.967 14.2454C226.687 12.0538 225.59 10.0449 224.676 8.03589L227.967 8.76642C228.149 9.31433 228.332 9.67959 228.698 10.2275Z" fill="#FF4A32"/>
<path d="M188.302 15.5239L187.57 18.6287C185.56 16.8024 183.915 14.7934 182.27 12.9671L183.001 9.49701C184.646 11.506 186.291 13.515 188.302 15.5239Z" fill="#FF4A32"/>
<path d="M186.474 24.473L185.743 27.5777C183.732 25.7514 182.087 23.7424 180.442 21.9161L181.173 18.446C182.818 20.455 184.463 22.464 186.474 24.473Z" fill="#FF4A32"/>
<path d="M184.646 33.4221L184.097 36.5268C182.087 34.5179 180.442 32.6915 178.797 30.8652L179.528 27.3951C180.99 29.4041 182.635 31.4131 184.646 33.4221Z" fill="#FF4A32"/>
<path d="M182.818 42.3711L182.27 45.4759C180.259 43.6495 178.614 41.6406 176.969 39.8142L177.7 36.3442C178.979 38.3532 180.807 40.3621 182.818 42.3711Z" fill="#FF4A32"/>
<path d="M180.807 51.3201L180.076 54.4249C178.066 52.4159 176.42 50.5896 174.775 48.7633L175.506 45.2932C177.152 47.3022 178.797 49.3112 180.807 51.3201Z" fill="#FF4A32"/>
<path d="M178.797 60.9998L178.248 63.374C176.238 61.5477 174.593 59.5387 173.13 57.7124L173.679 54.7902C174.958 56.6166 176.42 58.4429 178.065 60.2692C178.431 60.4519 178.614 60.8171 178.797 60.9998Z" fill="#FF4A32"/>
<path d="M177.152 69.2183L176.42 72.323C174.41 70.4967 172.765 68.4877 171.12 66.6614L171.851 63.1913C173.496 65.2003 175.141 67.2093 177.152 69.2183Z" fill="#FF4A32"/>
<path d="M175.141 78.35L174.41 81.2721V81.4548C174.41 81.4548 174.41 81.4548 174.41 81.2721C172.765 79.4458 170.937 77.6195 169.292 75.9757C169.109 75.7931 169.109 75.7931 168.926 75.6105L169.84 72.1404L170.023 72.3231C171.485 74.332 173.13 76.1584 175.141 78.35C175.141 78.35 175.141 78.1674 175.141 78.35Z" fill="#FF4A32"/>
<path d="M173.313 87.299L172.582 90.4038C170.754 88.5775 169.109 86.7511 167.464 84.9248C167.281 84.7422 167.281 84.7421 167.098 84.5595L168.012 81.0895L168.195 81.2721C169.657 83.2811 171.302 85.1074 173.313 87.299C173.313 87.299 173.313 87.1164 173.313 87.299Z" fill="#FF4A32"/>
<path d="M188.484 0.730536L168.012 92.0475L166.002 91.6822L167.281 84.9248L167.098 84.5595L168.012 81.2721L168.195 81.0895L169.109 75.9757L168.926 75.6104L169.84 72.323L170.023 72.1404L171.12 66.6614L171.851 63.1913L173.13 57.7123L173.679 54.7902L173.861 54.2423L174.958 48.7633L175.689 45.2932L176.786 39.8142L177.517 36.3442L178.797 30.8651L179.345 27.3951L180.625 21.9161L181.356 18.446L182.452 12.967L183.184 9.49696L183.915 6.20955L183.732 6.02692L184.28 3.83531L185.011 0.365268V0L188.484 0.730536Z" fill="#9FBFD4" style="mix-blend-mode:multiply"/>
<path d="M219.528 234.434H144.585L129.048 70.6118H235.065L219.528 234.434Z" fill="#FFF6F8"/>
<path d="M228.484 139.647C225.011 137.456 221.173 135.995 216.969 135.447C202.711 133.986 197.593 146.953 185.164 144.213C168.713 140.561 170.541 115.905 149.703 95.9979C144.037 90.5189 137.273 86.1357 130.327 82.6656L137.456 157.728C149.703 167.043 166.337 175.992 183.153 172.156C201.066 168.138 204.174 152.797 219.162 152.98C221.904 152.98 224.646 153.71 227.205 154.623L228.484 139.647Z" fill="#FF4A32"/>
<path d="M129.779 76.6387H234.516L235.065 70.6118H129.048L129.779 76.6387Z" fill="#DEDEDE"/>
<path d="M237.624 60.9322H125.027V73.1687H237.624V60.9322Z" fill="#FFF6F8"/>
<path d="M210.571 54.1747H152.079V63.3064H210.571V54.1747Z" fill="#FFF6F8"/>
<path d="M181.508 223.842C155.187 193.524 157.197 156.45 160.853 90.7015C161.219 83.0309 162.315 73.7166 169.078 68.6028C174.014 64.7675 181.142 63.8543 180.96 62.028C180.777 60.5669 175.476 61.2974 172.369 58.01C171.455 56.9142 170.906 55.6358 170.541 54.3574H152.079V61.2975H125.027V73.5339H129.414L144.585 234.617H192.475C188.82 231.512 185.164 228.042 181.508 223.842Z" fill="#9FBFD4" style="mix-blend-mode:multiply"/>
<path d="M74.0289 158.458L95.9634 74.6292L106.2 77.186L109.855 79.3776L88.1036 163.207L77.8675 160.65L74.0289 158.458Z" fill="#E6C82E"/>
<path d="M74.0682 158.563L84.3285 161.228L106.173 77.2702L95.9132 74.6051L74.0682 158.563Z" fill="#D4942A"/>
<path d="M106.931 88.5099C105.651 96.1806 102.727 103.669 101.995 103.303C101.995 103.303 101.813 103.121 101.813 101.477C102.361 93.2584 106.565 82.6657 107.479 83.0309C107.845 83.2136 107.479 85.7704 106.931 88.5099Z" fill="#EDE92F"/>
<path d="M101.264 106.956C101.447 108.782 100.168 112.435 99.4364 113.348C99.4364 113.531 99.2536 113.531 98.888 113.348C97.6085 112.435 99.802 106.956 100.716 106.043C101.081 105.678 101.264 106.225 101.264 106.956Z" fill="#EDE92F"/>
<path d="M83.5339 139.83L73.4806 53.6269L84.0823 52.5311L88.2864 53.079L98.3397 139.282L87.738 140.378L83.5339 139.83Z" fill="#E6C82E"/>
<path d="M83.4753 139.916L94.0059 138.692L83.9691 52.5221L73.4384 53.7466L83.4753 139.916Z" fill="#D4942A"/>
<path d="M88.8347 62.5759C90.297 70.0639 90.297 78.0998 89.5659 78.2824C89.5659 78.2824 89.3831 78.0998 88.8347 76.6387C86.4585 68.7855 86.4585 57.4622 87.3724 57.4622C87.738 57.4622 88.2864 60.019 88.8347 62.5759Z" fill="#EDE92F"/>
<path d="M90.297 81.9351C91.211 83.5788 91.211 87.5968 90.8454 88.5099C90.8454 88.6926 90.6626 88.8752 90.297 88.6926C88.8347 88.1447 88.8347 82.483 89.3831 81.3872C89.5659 80.8393 89.9315 81.3872 90.297 81.9351Z" fill="#EDE92F"/>
<path d="M33.4501 133.621L19.1927 47.9652L8.7738 49.7915L4.75247 51.6179L19.1927 137.091L29.6116 135.264L33.4501 133.621Z" fill="#D4942A"/>
<path d="M19.2454 48.0381L8.79006 49.7933L23.1768 135.347L33.6322 133.592L19.2454 48.0381Z" fill="#E6C82E"/>
<path d="M13.5263 56.549C13.5263 64.4022 16.9992 71.8902 18.4615 71.525C18.6443 71.525 19.0099 71.3423 19.3755 69.516C21.2033 60.9322 16.0853 50.5221 14.4402 50.8873C13.3435 51.2526 13.3435 53.8095 13.5263 56.549Z" fill="#EDE92F"/>
<path d="M18.4615 75.3603C17.182 77.3692 18.8271 81.0219 20.1066 81.7525C20.2894 81.9351 20.655 81.9351 21.2033 81.7525C24.1279 80.6567 21.5689 75.1776 20.1066 74.4471C19.3755 73.8992 19.0099 74.6297 18.4615 75.3603Z" fill="#EDE92F"/>
<path d="M37.1059 116.453L32.1706 29.7018L42.5895 29.1539L46.7936 30.0671L51.7289 116.636L41.1272 117.183L37.1059 116.453Z" fill="#E6C82E"/>
<path d="M36.9866 116.449L47.5713 115.852L42.6739 29.2396L32.0892 29.8371L36.9866 116.449Z" fill="#D4942A"/>
<path d="M46.7936 39.5641C47.8903 47.2347 47.342 55.2706 46.6108 55.2706C46.6108 55.2706 46.428 55.0879 45.8797 53.4442C43.869 45.4084 44.7829 34.0851 45.5141 34.2677C46.0625 34.2677 46.428 37.0072 46.7936 39.5641Z" fill="#EDE92F"/>
<path d="M47.1592 58.9233C48.0731 60.567 47.7075 64.5849 47.342 65.4981C47.342 65.6807 47.1592 65.8634 46.7936 65.6807C45.3313 65.1328 45.6969 59.4712 46.2452 58.1927C46.6108 57.8275 46.7936 58.3754 47.1592 58.9233Z" fill="#EDE92F"/>
<path d="M72.7494 122.845L57.3953 37.5551L67.8142 35.7288L72.0183 36.094L87.5552 121.384L77.1363 123.21L72.7494 122.845Z" fill="#E6C82E"/>
<path d="M72.7208 122.926L83.1539 121.047L67.7514 35.6754L57.3182 37.5546L72.7208 122.926Z" fill="#D4942A"/>
<path d="M73.2978 45.4084C75.3084 52.8964 75.674 60.9322 75.1257 60.9322C75.1257 60.9322 74.7601 60.9322 74.2117 59.2885C71.2871 51.6179 70.7388 40.2946 71.6527 40.2946C71.8355 40.2946 72.5666 42.8515 73.2978 45.4084Z" fill="#EDE92F"/>
<path d="M75.8568 64.7676C76.9535 66.4113 77.1363 70.2466 76.7708 71.3424C76.7708 71.525 76.588 71.7077 76.4052 71.525C74.9429 71.1598 74.5773 65.4981 74.9429 64.2197C75.1257 63.6718 75.4912 64.2197 75.8568 64.7676Z" fill="#EDE92F"/>
<path d="M9.68773 167.589L4.75247 81.0209L15.3541 80.2903L19.5583 81.2035L24.3107 167.772L13.8918 168.32L9.68773 167.589Z" fill="#E6C82E"/>
<path d="M9.65198 167.492L20.2367 166.894L15.3393 80.2819L4.7546 80.8794L9.65198 167.492Z" fill="#D4942A"/>
<path d="M19.5583 90.7015C20.655 98.3721 20.1066 106.408 19.3755 106.408C19.3755 106.408 19.1927 106.225 18.6443 104.582C16.6337 96.5458 17.5476 85.2225 18.2787 85.4051C18.8271 85.5878 19.1927 88.1446 19.5583 90.7015Z" fill="#EDE92F"/>
<path d="M19.7411 110.243C20.655 111.887 20.2894 115.905 19.9238 116.818C19.9238 117.001 19.7411 117.183 19.3755 117.001C17.9132 116.453 18.2788 110.791 18.8271 109.513C19.1927 108.965 19.5583 109.513 19.7411 110.243Z" fill="#EDE92F"/>
<path d="M85.179 171.426L79.5126 85.0399L68.9109 85.5878L64.8896 87.0489L70.556 173.617L81.1577 172.887L85.179 171.426Z" fill="#D4942A"/>
<path d="M79.5594 84.9642L68.9811 85.6633L74.7112 172.224L85.2896 171.524L79.5594 84.9642Z" fill="#E6C82E"/>
<path d="M72.9322 92.8932C72.2011 100.564 74.7601 108.417 76.2224 108.417C76.4052 108.417 76.7708 108.234 77.3191 106.591C79.8781 98.3722 76.0396 87.2315 74.2117 87.5968C73.4806 87.5968 73.2978 90.1536 72.9322 92.8932Z" fill="#EDE92F"/>
<path d="M76.2224 112.07C74.7601 113.896 76.0396 117.731 77.1363 118.645C77.3191 118.827 77.5019 119.01 78.2331 118.827C81.1577 117.914 79.3298 112.435 77.8675 111.339C77.1363 110.791 76.7708 111.522 76.2224 112.07Z" fill="#EDE92F"/>
<path d="M60.6855 122.48L61.4166 35.7287H50.9977L46.7936 36.6419L45.8797 123.393L56.4813 123.576L60.6855 122.48Z" fill="#D4942A"/>
<path d="M61.463 35.7821L50.8613 35.6822L50.0421 122.433L60.6438 122.533L61.463 35.7821Z" fill="#E6C82E"/>
<path d="M54.4707 43.2167C53.1912 50.8873 55.2018 58.9232 56.6641 58.9232C56.8469 58.9232 57.2125 58.7406 57.9436 57.0969C61.2338 49.061 58.1264 37.7377 56.2986 37.9203C55.2018 37.9203 54.8363 40.4772 54.4707 43.2167Z" fill="#EDE92F"/>
<path d="M56.1158 62.5759C54.6535 64.2196 55.3846 68.2375 56.4813 69.1507C56.6641 69.3333 56.8469 69.516 57.5781 69.3333C60.6855 68.7854 59.2232 62.9412 57.7609 61.8454C57.2125 61.2975 56.6641 62.028 56.1158 62.5759Z" fill="#EDE92F"/>
<path d="M64.3412 140.926L77.6847 55.2706L67.2658 53.6269L63.0617 53.9922L49.5354 139.647L60.1371 141.291L64.3412 140.926Z" fill="#D4942A"/>
<path d="M77.7479 55.3247L67.2745 53.6849L53.8342 139.386L64.3076 141.026L77.7479 55.3247Z" fill="#E6C82E"/>
<path d="M69.642 61.4801C67.2658 68.7855 67.997 77.004 69.4593 77.3693C69.642 77.3693 70.0076 77.3693 70.9216 75.7256C75.3085 68.2376 73.8462 56.549 72.0183 56.3664C71.2871 56.3664 70.556 58.9233 69.642 61.4801Z" fill="#EDE92F"/>
<path d="M68.5453 81.0219C66.7174 82.483 67.083 86.501 67.997 87.5968C68.1797 87.7794 68.3625 87.962 68.9109 87.962C72.0183 87.7794 71.4699 81.9351 70.1904 80.6567C69.8248 79.9261 69.0937 80.474 68.5453 81.0219Z" fill="#EDE92F"/>
<path d="M39.1165 130.333L19.1927 45.7736L29.6116 43.3994L33.8157 43.582L53.7395 127.959L43.3207 130.333H39.1165Z" fill="#E6C82E"/>
<path d="M39.0345 130.319L49.3563 127.901L29.5344 43.4398L19.2126 45.8581L39.0345 130.319Z" fill="#D4942A"/>
<path d="M35.4608 52.8963C37.837 60.2017 38.751 68.2376 38.0198 68.4202C38.0198 68.4202 37.6542 68.4202 37.1059 66.7765C33.8157 59.2885 32.5362 47.9652 33.4501 47.9652C33.8157 47.7826 34.7296 50.3395 35.4608 52.8963Z" fill="#EDE92F"/>
<path d="M39.1165 71.8903C40.2133 73.3514 40.7616 77.3693 40.396 78.2825C40.396 78.4651 40.2133 78.6477 40.0305 78.6477C38.5682 78.2825 37.837 72.6208 38.2026 71.3424C38.3854 70.9771 38.751 71.525 39.1165 71.8903Z" fill="#EDE92F"/>
<path d="M32.9017 150.971L46.428 65.3155L36.0091 63.6718L31.805 64.037L18.2787 149.692L28.6976 151.336L32.9017 150.971Z" fill="#D4942A"/>
<path d="M46.5137 65.2023L36.0403 63.5625L22.6 149.264L33.0733 150.904L46.5137 65.2023Z" fill="#E6C82E"/>
<path d="M38.3854 71.525C36.0091 78.8304 36.7403 87.0489 38.2026 87.4142C38.3854 87.4142 38.751 87.4142 39.6649 85.7704C44.0518 78.2825 42.5895 66.5939 40.7616 66.4113C40.0305 66.4113 39.1165 68.9681 38.3854 71.525Z" fill="#EDE92F"/>
<path d="M37.2886 90.8842C35.4608 92.3452 35.8263 96.3632 36.7403 97.459C36.9231 97.6416 37.1059 97.8243 37.6542 97.8243C40.7616 97.6416 40.2133 91.7973 38.9337 90.5189C38.3854 89.971 37.837 90.5189 37.2886 90.8842Z" fill="#EDE92F"/>
<path d="M91.9421 246.123H12.7951L0 120.471H104.737L91.9421 246.123Z" fill="#FF4A32"/>
<path d="M91.9421 245.392C68.3625 231.878 42.2239 211.788 31.6222 179.279C24.4935 157.363 26.687 136.36 27.6009 120.471H0L12.7951 246.123H91.9421V245.392Z" fill="#E8312E"/>
<path d="M52.2772 220.006C64.2904 220.006 74.0289 205.288 74.0289 187.132C74.0289 168.976 64.2904 154.258 52.2772 154.258C40.2641 154.258 30.5255 168.976 30.5255 187.132C30.5255 205.288 40.2641 220.006 52.2772 220.006Z" fill="#FFF6F8"/>
<path d="M52.2772 220.006C53.7395 220.006 55.3846 219.824 56.8469 219.276C46.0625 208.5 37.1059 195.533 31.805 179.279C31.6222 178.914 31.6222 178.548 31.4395 178.183C30.8911 181.105 30.5255 184.028 30.5255 187.132C30.5255 205.396 40.2133 220.006 52.2772 220.006Z" fill="#FFDCCB"/>
<path d="M186.992 291.234H47.5248C35.8264 291.234 26.5042 281.737 26.5042 270.231V268.587H208.012V270.231C208.012 281.737 198.507 291.234 186.992 291.234Z" fill="#FFAD4B"/>
<path d="M208.012 268.587H26.5042V277.901C28.6976 278.449 32.1706 275.344 37.837 274.796C48.2559 273.883 51.3633 283.198 61.5994 282.65C69.4593 282.284 69.2765 276.988 76.9535 276.805C86.8241 276.623 89.9315 285.755 99.0708 284.659C105.286 283.928 105.103 279.545 111.135 278.814C121.188 277.719 125.758 288.677 134.349 286.668C139.65 285.389 138.919 281.006 144.402 279.728C152.628 277.901 157.197 287.398 164.509 285.572C170.175 284.111 169.444 277.536 175.11 276.075C183.519 273.701 192.292 286.668 196.679 283.928C199.421 282.102 196.862 276.258 200.335 273.883C202.529 272.422 205.636 273.701 208.012 274.249V268.587Z" fill="#DE7441"/>
<path d="M26.5042 270.048V280.823C26.5042 286.668 31.2567 291.234 36.9231 291.234H98.3397C95.4151 290.138 93.0388 288.677 92.3077 286.302C91.0282 281.737 97.6085 278.632 96.8774 275.162C96.1462 271.874 89.0175 269.683 78.7814 268.587H38.0198C33.9985 268.952 30.1599 269.5 26.5042 270.048Z" fill="#DE7441"/>
<path d="M27.2353 262.195C26.8698 263.108 23.0312 271.509 25.5903 273.883C27.6009 275.71 31.2567 271.692 37.6542 271.326C48.0731 270.413 51.1805 279.728 61.4166 279.18C69.2765 278.814 69.0937 273.518 76.7708 273.335C86.6413 273.153 89.7487 282.285 98.888 281.189C105.103 280.458 104.92 276.075 110.952 275.344C121.005 274.249 125.575 285.207 134.166 283.198C139.467 281.919 138.736 277.536 144.219 276.258C152.445 274.431 157.014 283.928 164.326 282.102C169.992 280.641 169.261 274.066 174.928 272.605C183.336 270.231 192.11 283.198 196.497 280.458C199.238 278.632 196.679 272.788 200.152 270.413C203.625 268.039 208.926 272.24 210.754 270.413C212.582 268.404 208.378 261.83 208.195 261.464C194.669 240.827 40.5788 233.156 27.2353 262.195Z" fill="#7FCF33"/>
<path d="M27.2353 262.195C27.0525 262.743 25.5902 265.665 25.0419 268.587C25.2247 268.952 25.4075 269.317 25.5902 269.5C27.6009 271.326 31.2567 267.308 37.6542 266.943C48.0731 266.03 51.1805 275.344 61.4166 274.796C69.2765 274.431 69.0937 269.135 76.7708 268.952C86.6413 268.77 89.7487 277.901 98.888 276.805C105.103 276.075 104.92 271.692 110.952 270.961C121.005 269.865 125.575 280.823 134.166 278.814C139.467 277.536 138.736 273.153 144.219 271.874C152.445 270.048 157.014 279.545 164.326 277.719C169.992 276.258 169.261 269.683 174.928 268.222C183.336 265.847 192.11 278.814 196.497 276.075C199.238 274.249 196.679 268.404 200.152 266.03C203.625 263.838 208.743 267.674 210.571 266.213C209.657 263.838 208.195 261.464 208.012 261.282C194.669 240.827 40.5788 233.156 27.2353 262.195Z" fill="#76BF2F"/>
<path d="M208.012 261.282C203.991 255.803 190.465 251.237 172.551 248.132C132.704 246.306 72.5666 248.315 39.2993 252.515C33.2673 255.072 29.0632 258.36 27.2353 262.195C27.0526 262.56 26.5042 263.656 25.9558 265.117C26.8698 265.482 27.9665 265.665 28.6976 265.847C35.8264 267.491 39.2993 266.03 50.6321 266.578C56.6641 266.943 57.9436 267.491 64.1584 268.222C76.4052 269.5 81.1577 268.587 95.0495 268.404C108.759 268.404 106.565 269.5 129.414 270.231C141.295 270.596 148.606 270.961 158.66 270.413C167.433 270.048 170.358 269.5 173.283 268.952C173.831 268.587 174.379 268.404 174.928 268.222C176.207 267.856 177.487 267.856 178.766 268.039C180.96 267.856 183.701 267.491 187.723 267.309C193.024 267.126 198.507 266.943 203.991 263.656C205.088 263.473 206.55 262.377 208.012 261.282Z" fill="#549E27"/>
<path d="M95.4151 280.093C97.6085 281.189 99.802 280.276 100.716 279.91C103.092 278.997 104.737 276.806 104.554 276.623C104.372 276.44 103.275 277.719 101.081 278.267C97.0602 279.362 93.5872 276.988 93.2216 277.536C92.8561 278.084 93.9528 279.362 95.4151 280.093Z" fill="#A6F03A"/>
<path d="M129.414 281.737C131.607 282.832 133.8 281.919 134.714 281.554C137.091 280.641 138.736 278.449 138.553 278.267C138.37 278.084 137.273 279.362 135.08 279.91C131.059 281.006 127.586 278.632 127.22 279.18C126.855 279.728 128.134 281.006 129.414 281.737Z" fill="#A6F03A"/>
<path d="M159.391 280.641C161.584 281.737 163.778 280.823 164.692 280.458C167.068 279.545 168.713 277.353 168.53 277.171C168.347 276.988 167.251 278.267 165.057 278.814C161.036 279.91 157.563 277.536 157.197 278.084C156.832 278.632 157.928 279.91 159.391 280.641Z" fill="#A6F03A"/>
<path d="M194.12 278.997C191.744 279.18 189.916 277.719 189.185 277.171C187.174 275.527 186.26 273.153 186.626 272.97C186.809 272.788 187.54 274.431 189.368 275.527C192.841 277.901 196.862 276.806 197.045 277.536C197.228 278.267 195.583 278.997 194.12 278.997Z" fill="#A6F03A"/>
<path d="M208.926 269.5C207.281 270.048 205.819 269.135 205.27 268.952C203.625 268.039 202.711 266.578 202.894 266.578C203.077 266.395 203.808 267.309 205.088 268.039C207.829 269.135 210.388 267.857 210.571 268.404C210.937 268.404 209.84 269.135 208.926 269.5Z" fill="#A6F03A"/>
<path d="M135.08 252.333C135.08 248.863 112.414 245.94 84.6306 245.94C56.8469 245.94 34.1813 248.863 34.1813 252.333C34.1813 253.428 34.1813 256.898 34.1813 257.994C34.1813 261.464 56.8469 264.386 84.6306 264.386C112.414 264.386 135.08 261.464 135.08 257.994C135.08 257.081 135.08 253.428 135.08 252.333Z" fill="#FF4A32"/>
<path d="M126.489 259.821C122.833 261.464 117.532 260.551 117.35 259.821C116.984 258.725 127.951 256.351 129.048 257.446C129.596 257.812 127.951 259.09 126.489 259.821Z" fill="#FFF6F8"/>
<path d="M84.6306 258.725C112.493 258.725 135.08 255.863 135.08 252.333C135.08 248.802 112.493 245.94 84.6306 245.94C56.7682 245.94 34.1813 248.802 34.1813 252.333C34.1813 255.863 56.7682 258.725 84.6306 258.725Z" fill="#E0412C"/>
<path d="M112.414 261.647C112.78 262.378 113.877 262.56 114.791 262.012C115.339 261.647 115.704 260.734 115.522 260.003C115.339 259.273 114.608 258.907 113.877 258.907C112.78 258.907 111.866 260.734 112.414 261.647Z" fill="#FFF6F8"/>
<path d="M133.618 250.871C133.618 250.871 133.8 250.871 133.8 251.054C133.8 251.054 133.8 250.871 133.618 250.871Z" fill="#BF3930"/>
<path d="M134.166 251.237C134.166 251.237 134.349 251.237 134.349 251.419C134.349 251.237 134.349 251.237 134.166 251.237Z" fill="#BF3930"/>
<path d="M132.887 250.506C133.069 250.506 133.069 250.506 133.252 250.689C133.069 250.689 133.069 250.689 132.887 250.506Z" fill="#BF3930"/>
<path d="M132.155 250.323C132.338 250.323 132.338 250.323 132.521 250.506C132.338 250.323 132.338 250.323 132.155 250.323Z" fill="#BF3930"/>
<path d="M131.241 249.958C131.424 249.958 131.424 249.958 131.607 250.141C131.424 249.958 131.241 249.958 131.241 249.958Z" fill="#BF3930"/>
<path d="M97.6085 258.542C97.7913 259.638 98.1569 263.108 98.3397 264.204C119.543 263.473 135.08 260.916 135.08 258.177C135.08 257.081 135.08 253.611 135.08 252.515C135.08 255.255 119.177 257.812 97.6085 258.542Z" fill="#DB372B"/>
<path d="M134.349 251.419L134.532 251.602C134.532 251.419 134.532 251.419 134.349 251.419Z" fill="#E0412C"/>
<path d="M132.521 250.323C132.704 250.323 132.887 250.506 133.069 250.506C132.887 250.506 132.704 250.506 132.521 250.323Z" fill="#E0412C"/>
<path d="M130.327 249.776C130.693 249.776 130.876 249.958 131.241 249.958C130.876 249.776 130.693 249.776 130.327 249.776Z" fill="#E0412C"/>
<path d="M131.607 249.958C131.79 249.958 131.973 250.141 132.155 250.141C131.973 250.141 131.79 250.141 131.607 249.958Z" fill="#E0412C"/>
<path d="M134.714 251.602L134.897 251.785C134.897 251.785 134.897 251.785 134.714 251.602Z" fill="#E0412C"/>
<path d="M133.983 251.054C134.166 251.054 134.166 251.237 134.349 251.237C134.166 251.237 133.983 251.054 133.983 251.054Z" fill="#E0412C"/>
<path d="M133.252 250.689C133.435 250.689 133.435 250.871 133.618 250.871C133.435 250.871 133.435 250.689 133.252 250.689Z" fill="#E0412C"/>
<path d="M135.08 251.967C134.897 251.967 134.897 251.967 135.08 251.967C134.897 251.785 134.897 251.785 134.897 251.602C134.897 251.602 134.897 251.602 134.714 251.419L134.532 251.237C134.532 251.237 134.349 251.237 134.349 251.054C134.166 251.054 134.166 250.871 133.983 250.871C133.983 250.871 133.8 250.871 133.8 250.689C133.618 250.689 133.618 250.506 133.435 250.506C133.252 250.506 133.252 250.506 133.069 250.324C132.887 250.324 132.704 250.141 132.521 250.141C132.338 250.141 132.338 250.141 132.155 249.958C131.973 249.958 131.79 249.776 131.607 249.776C131.424 249.776 131.424 249.776 131.241 249.593C131.059 249.593 130.693 249.41 130.328 249.41H130.145C110.769 251.967 97.243 255.62 97.6085 258.359C119.177 257.629 135.08 255.255 135.08 252.15C135.08 252.333 135.08 252.15 135.08 251.967Z" fill="#BF3930"/>
<path d="M201.615 249.776C201.249 246.306 178.401 245.393 150.617 247.949C122.833 250.324 100.716 255.255 101.264 258.725C101.447 259.821 101.813 263.291 101.995 264.387C102.361 267.857 125.209 268.77 152.993 266.213C180.777 263.839 202.894 258.907 202.346 255.437C202.163 254.342 201.797 250.689 201.615 249.776Z" fill="#FF4A32"/>
<path d="M194.12 257.812C190.83 259.638 185.347 259.273 184.981 258.542C184.433 257.446 195.217 254.159 196.314 255.255C196.862 255.62 195.4 257.081 194.12 257.812Z" fill="#FFF6F8"/>
<path d="M201.615 249.776C201.98 253.246 179.863 257.994 152.262 260.551C124.478 262.925 101.813 262.195 101.264 258.725C100.899 255.255 123.016 250.506 150.617 247.949C178.401 245.393 201.249 246.306 201.615 249.776Z" fill="#E0412C"/>
<path d="M180.228 260.916C180.594 261.647 181.874 261.647 182.605 261.099C182.97 260.734 183.519 259.821 183.153 259.09C182.788 258.36 182.056 257.994 181.508 258.177C180.229 258.177 179.68 260.003 180.228 260.916Z" fill="#FFF6F8"/>
<path d="M143.671 249.958C143.671 249.958 111.5 252.88 109.49 256.168C107.479 259.455 129.596 259.638 141.843 259.273C154.09 258.907 146.961 257.081 143.488 255.072C140.198 252.88 152.81 249.228 143.671 249.958Z" fill="#DB372B"/>
<path opacity="0.39" d="M150.8 247.767C143.854 248.315 137.273 249.045 131.424 249.958C123.93 247.584 105.834 245.94 84.6306 245.94C56.8469 245.94 34.1813 248.863 34.1813 252.333C34.1813 254.342 41.31 255.985 52.46 257.264H178.035C192.475 254.889 201.98 251.967 201.797 249.776C201.249 246.306 178.401 245.393 150.8 247.767Z" fill="#85321A"/>
<path d="M191.379 253.063H44.2346C34.5468 253.063 26.8698 245.21 26.8698 235.713C26.8698 226.033 34.7296 218.363 44.2346 218.363H191.379C201.066 218.363 208.743 226.216 208.743 235.713C208.743 245.21 201.066 253.063 191.379 253.063Z" fill="#D64F2A"/>
<path d="M193.572 218.18H39.1165C32.1706 218.18 26.687 223.659 26.687 230.599V240.644C26.687 247.584 32.1706 253.063 39.1165 253.063H51.7289C51.3633 251.602 51.3633 250.141 51.9116 248.497C56.2985 236.078 95.0495 240.461 123.564 241.009C144.219 241.375 173.283 239.913 208.743 231.695C207.829 224.024 201.249 218.18 193.572 218.18Z" fill="#A33C20"/>
<path d="M36.0809 209.523L25.4298 216.271L59.1014 269.328L69.7525 262.58L36.0809 209.523Z" fill="#85321A"/>
<path d="M69.3651 209.506L58.7139 216.256L92.3919 269.312L103.043 262.563L69.3651 209.506Z" fill="#85321A"/>
<path d="M102.609 209.504L91.9575 216.252L125.629 269.309L136.28 262.56L102.609 209.504Z" fill="#85321A"/>
<path d="M135.893 209.481L125.242 216.23L158.92 269.287L169.571 262.537L135.893 209.481Z" fill="#85321A"/>
<path d="M169.136 209.485L158.485 216.233L192.157 269.289L202.808 262.541L169.136 209.485Z" fill="#85321A"/>
<path d="M214.958 227.677C212.765 178.366 169.992 139.1 117.715 139.1C65.4379 139.1 22.6656 178.366 20.4722 227.677H214.958Z" fill="#FFAD4B"/>
<path d="M196.461 207.722C203.339 201.638 199.204 185.747 187.225 172.229C175.246 158.711 159.96 152.685 153.082 158.77C146.204 164.855 150.339 180.746 162.318 194.263C174.297 207.781 189.583 213.807 196.461 207.722Z" fill="#FFC94B"/>
<path d="M141.295 213.432C134.897 211.423 96.6946 199.734 87.9208 170.695C84.9962 161.016 86.0929 151.519 88.8347 143.3C50.4493 154.623 22.3001 187.863 20.4722 227.677H214.958C214.775 222.563 214.044 217.632 212.947 212.701C193.572 218.363 168.347 221.833 141.295 213.432Z" fill="#F07D46"/>
<path d="M121.323 181.436C121.221 180.533 119.268 180.014 116.961 180.275C114.653 180.536 112.866 181.479 112.968 182.381C113.07 183.283 115.024 183.802 117.331 183.541C119.638 183.28 121.426 182.338 121.323 181.436Z" fill="#FFF6F8"/>
<path d="M159.317 160.931C159.853 160.198 158.768 158.494 156.894 157.125C155.019 155.755 153.065 155.24 152.529 155.972C151.993 156.705 153.077 158.409 154.952 159.779C156.826 161.148 158.781 161.664 159.317 160.931Z" fill="#FFF6F8"/>
<path d="M159.246 207.966C159.993 207.45 159.528 205.485 158.207 203.577C156.885 201.669 155.209 200.541 154.462 201.057C153.714 201.574 154.18 203.539 155.501 205.447C156.822 207.355 158.499 208.483 159.246 207.966Z" fill="#FFF6F8"/>
<path d="M202.933 209.548C203.68 209.031 203.215 207.066 201.894 205.158C200.573 203.25 198.896 202.122 198.149 202.639C197.402 203.155 197.867 205.121 199.188 207.029C200.509 208.936 202.186 210.064 202.933 209.548Z" fill="#FFF6F8"/>
<path d="M62.6394 198.275C63.2264 198.968 65.1388 198.314 66.9108 196.815C68.6829 195.316 69.6436 193.54 69.0565 192.847C68.4695 192.154 66.5571 192.807 64.7851 194.306C63.013 195.805 62.0524 197.582 62.6394 198.275Z" fill="#FFDCCB"/>
<path d="M173.304 187.429C173.891 188.121 175.803 187.468 177.575 185.969C179.347 184.47 180.308 182.693 179.721 182.001C179.134 181.308 177.222 181.961 175.45 183.46C173.678 184.959 172.717 186.736 173.304 187.429Z" fill="#FFF6F8"/>
<path d="M180.305 212.214C180.892 212.907 182.805 212.253 184.577 210.754C186.349 209.255 187.31 207.479 186.723 206.786C186.136 206.093 184.223 206.746 182.451 208.245C180.679 209.744 179.718 211.521 180.305 212.214Z" fill="#FFF6F8"/>
<path d="M74.4592 174.527C75.2063 174.01 74.7411 172.045 73.4199 170.137C72.0988 168.229 70.4221 167.101 69.6749 167.618C68.9277 168.134 69.3929 170.1 70.7141 172.008C72.0352 173.915 73.712 175.043 74.4592 174.527Z" fill="#FFDCCB"/>
<path d="M94.5431 191.491C95.2903 190.974 94.825 189.009 93.5039 187.101C92.1827 185.193 90.506 184.065 89.7588 184.582C89.0116 185.098 89.4769 187.064 90.798 188.971C92.1192 190.879 93.7959 192.007 94.5431 191.491Z" fill="#FFDCCB"/>
<path d="M123.315 160.54C123.852 159.807 122.767 158.103 120.892 156.734C119.018 155.365 117.064 154.85 116.527 155.582C115.991 156.315 117.076 158.019 118.951 159.388C120.825 160.757 122.779 161.273 123.315 160.54Z" fill="#FFF6F8"/>
<path d="M96.4274 156.131C96.9636 155.398 95.8786 153.694 94.0042 152.325C92.1298 150.956 90.1756 150.44 89.6394 151.173C89.1033 151.906 90.1882 153.61 92.0627 154.979C93.9371 156.348 95.8913 156.864 96.4274 156.131Z" fill="#FFF6F8"/>
<path d="M145.449 181.983C145.65 182.868 147.648 183.171 149.912 182.659C152.177 182.146 153.85 181.013 153.649 180.128C153.449 179.243 151.451 178.94 149.186 179.452C146.921 179.965 145.248 181.098 145.449 181.983Z" fill="#FFF6F8"/>
<path d="M88.4634 216.483C88.6641 217.368 90.6624 217.671 92.9269 217.159C95.1915 216.646 96.8646 215.513 96.664 214.628C96.4634 213.743 94.465 213.44 92.2005 213.952C89.936 214.465 88.2628 215.598 88.4634 216.483Z" fill="#FFDCCB"/>
<path d="M39.329 191.675C39.5296 192.561 41.5279 192.863 43.7924 192.351C46.057 191.839 47.7301 190.706 47.5295 189.821C47.3289 188.935 45.3305 188.633 43.066 189.145C40.8015 189.657 39.1283 190.79 39.329 191.675Z" fill="#FFDCCB"/>
<path d="M126.54 199.697C126.741 200.583 128.739 200.885 131.004 200.373C133.268 199.861 134.941 198.728 134.741 197.842C134.54 196.957 132.542 196.654 130.277 197.167C128.013 197.679 126.34 198.812 126.54 199.697Z" fill="#FFF6F8"/>
<path d="M116.437 219.114C116.638 219.999 118.636 220.301 120.901 219.789C123.165 219.277 124.838 218.144 124.638 217.259C124.437 216.373 122.439 216.071 120.174 216.583C117.91 217.095 116.236 218.228 116.437 219.114Z" fill="#FFDCCB"/>
<path d="M46.2135 216.841C46.4142 217.727 48.4125 218.029 50.6771 217.517C52.9416 217.005 54.6147 215.872 54.4141 214.986C54.2135 214.101 52.2151 213.798 49.9506 214.311C47.6861 214.823 46.0129 215.956 46.2135 216.841Z" fill="#FFDCCB"/>
<path d="M43.3206 253.063H105.651L72.9322 269.865L43.3206 253.063Z" fill="#E6C82E"/>
<path d="M137.273 253.063H199.421L166.702 269.865L137.273 253.063Z" fill="#E6C82E"/>
<path d="M105.651 253.063H43.3206L50.9977 257.446H97.243L105.651 253.063Z" fill="#D4942A"/>
<path d="M144.768 257.446H191.013L199.421 253.063H137.273L144.768 257.446Z" fill="#D4942A"/>
<path d="M74.9429 261.464C78.5986 258.177 84.4478 258.725 84.8134 260.003C85.3618 261.83 73.6634 267.674 72.3839 266.03C71.6527 265.3 73.4806 262.743 74.9429 261.464Z" fill="#FFF6F8"/>
<path d="M168.896 262.012C172.551 258.725 178.401 259.273 178.766 260.551C179.315 262.377 167.616 268.222 166.337 266.578C165.788 265.847 167.433 263.291 168.896 262.012Z" fill="#FFF6F8"/>
<path d="M162.133 263.473C162.498 264.204 163.778 264.386 164.692 263.839C165.24 263.473 165.788 262.743 165.423 261.83C165.24 261.099 164.326 260.734 163.778 260.734C162.681 260.916 161.767 262.56 162.133 263.473Z" fill="#FFF6F8"/>
<path d="M165.24 98.3721L157.563 123.028L189.185 118.645L165.24 98.3721Z" fill="#FF4A32"/>
<path d="M166.142 97.547L165.273 97.2634L145.459 157.848L146.328 158.131L166.142 97.547Z" fill="#FFF6F8"/>
</g>
<defs>
<clipPath id="clip0_60_260">
<rect width="237.624" height="300" fill="white"/>
</clipPath>
</defs>
</svg>
